<svg xmlns="http://www.w3.org/2000/svg" viewBox="0 0 716 184">
  <path d="M360 182.9h-34V0h34v182.9ZM310.7 34.1V.1h-58c-14.3 0-25.9 11.6-25.9 25.9v46.4h-14.2v34h14.2v76.5h34v-76.5h25.9v-34h-25.9V40.2c0-3.4 2.7-6.1 6.1-6.1h43.8ZM34 182.9H0V55.3h34v127.6Zm460.1-62.5c-.2 17.9-4.9 34.2-17.7 47.1-9.7 9.9-21.5 15.1-35.2 15.4-7.6.2-15.3.2-22.7-2.4-18.3-6.4-29.8-19.6-35.4-38.2-5.5-18.5-4.4-36.8 3.9-54.3 8-16.7 20.6-28.4 38.6-31.5 27-4.7 48.7 5.5 61.8 32.2 5 9.8 7 20.5 6.7 31.7Zm-31.9-.7c.3-6.1-1.1-11.8-3.9-17.1-4.5-8.6-11.8-13.2-21.2-13.2-9.3.1-16.8 4.4-21.2 13.2-4.7 9.4-5 19.2-1.9 29.1 5.8 18.3 27.9 22.7 40.5 9.8 5.9-5.9 7.5-13.6 7.7-21.8ZM155.9 55.4v74.1c-19.3-22.6-29-34-55.7-65.2-4.1-5.4-10.7-8.9-18-8.9-12 0-21.9 9.4-22.6 21.3V183h34v-74c19.4 22.7 29.1 34.1 55.9 65.5 4.2 5.3 10.6 8.6 17.8 8.6 12 0 21.9-9.4 22.6-21.3V55.5c-11.7-.1-22.8-.1-34-.1Zm559.8-.1h-34.5L652.8 135l-28.3-79.7h-35.1L561.1 135l-28.3-79.7H499c12.5 37.3 39.5 111 39.6 111 4.5 12 12.1 16.5 22.7 16.5 11.2 0 18-3.4 22.7-16.5 7.2-20.8 15.3-43.1 22.9-63.9l.2-.6c7.7 21.3 15.7 43.2 23.2 64.5 4.2 11.8 11.8 16.5 22.7 16.5 10.9 0 19.2-6.2 22.7-16.5 7.3-21 15.3-42.8 22.9-63.9l17.1-47.1Z"></path>
</svg>
