<svg xmlns="http://www.w3.org/2000/svg" viewBox="0 0 66 48" fill="none">
  <g clip-path="url(#prefix__a)" fill="#000">
    <path d="M54.14 4.995v-.792h3.653v.792h-1.366v3.851h-.921V4.995H54.14Zm4.12 3.851V4.203h1.296l.641 2.331c.047.173.093.366.14.578.05.208.09.373.114.494l.032.182h.013c.08-.446.174-.864.28-1.254l.641-2.331h1.316v4.643h-.858V6.183l.038-.96H61.9c-.068.363-.133.657-.197.883l-.781 2.74h-.883l-.763-2.74-.197-.884h-.013c.026.39.038.71.038.961v2.663h-.845ZM3.273 22.362H-.015V1.142h8.294c2.114 0 3.832.637 5.155 1.909 1.323 1.273 1.985 2.88 1.985 4.82 0 1.94-.662 3.506-1.985 4.76-1.323 1.252-3.041 1.878-5.155 1.878H3.273v7.852Zm0-18.22v7.367h5.006c1.106 0 2.01-.349 2.71-1.045.701-.698 1.052-1.572 1.052-2.622 0-1.05-.35-1.956-1.051-2.653-.702-.697-1.605-1.045-2.71-1.045H3.272v-.001Zm38.469 17.342L46.54 6.872h3.17L42.6 28.426h-3.17l2.015-6.063h-2.459l-5.154-15.49h3.377l4.532 14.61ZM10.353 36.999c1.62.162 2.904.707 3.851 1.637.948.93 1.422 2.102 1.422 3.516 0 1.597-.563 2.92-1.689 3.971-1.126 1.052-2.597 1.577-4.413 1.577h-9.54V26.48h8.651c1.797 0 3.263.535 4.399 1.607 1.136 1.072 1.703 2.395 1.703 3.97 0 1.274-.39 2.346-1.17 3.214-.78.869-1.851 1.444-3.215 1.728h.001Zm-1.985-7.61H3.184v6.276h5.184c.987 0 1.787-.298 2.4-.894.612-.596.918-1.35.918-2.258 0-.91-.306-1.658-.918-2.243-.613-.586-1.413-.88-2.4-.88Zm-5.184 15.4H9.02c.987 0 1.787-.298 2.4-.894.612-.595.918-1.349.918-2.258 0-.91-.306-1.657-.918-2.243-.613-.586-1.413-.879-2.4-.879H3.184v6.276-.001Zm32.75.909c-1.54-1.535-2.31-3.446-2.31-5.73 0-2.283.77-4.198 2.31-5.744 1.54-1.546 3.446-2.318 5.718-2.318 1.64 0 3.105.434 4.398 1.303 1.294.87 2.247 2.062 2.86 3.577l-2.874 1c-.395-.91-.977-1.626-1.748-2.152-.77-.525-1.649-.788-2.636-.788-1.363 0-2.508.49-3.436 1.47-.93.98-1.392 2.197-1.392 3.652 0 1.454.464 2.667 1.392 3.637.928.97 2.073 1.455 3.436 1.455.987 0 1.87-.258 2.65-.773.781-.515 1.358-1.238 1.734-2.168l2.873 1c-.612 1.516-1.565 2.709-2.858 3.577-1.294.87-2.76 1.304-4.4 1.304-2.27 0-4.176-.769-5.717-2.304v.002Zm22.992-7.031 6.992 9.034h-3.94l-5.154-6.669-2.37 2.607v4.062h-3.11V25.268h3.11v14.187l6.398-7.245h3.91l-5.836 6.457ZM17.486 6.872h14.329v15.491h-2.97V12.071l-8.989 9.999-2.136-2.187 8.962-9.971H17.46l.027-3.04Zm14.661 40.827h-14.33V32.208h2.97v10.291l8.988-9.998 2.137 2.187-8.963 9.971h9.223l-.025 3.04Z"></path>
  </g>
  <defs>
    <clipPath id="prefix__a">
      <path d="M0 0h65.922v48H0z" fill="#fff"></path>
    </clipPath>
  </defs>
</svg>
